<svg xmlns="http://www.w3.org/2000/svg" version="1.1" xmlns:xlink="http://www.w3.org/1999/xlink" width="69" height="67"><svg xmlns="http://www.w3.org/2000/svg" version="1.1" xmlns:xlink="http://www.w3.org/1999/xlink" width="69" height="67"><svg width="69" height="67" viewBox="0 0 69 67" fill="none" xmlns="http://www.w3.org/2000/svg">
<path d="M49.75 6H19.25C10.8277 6 4 12.8277 4 21.25V51.75C4 60.1723 10.8277 67 19.25 67H49.75C58.1723 67 65 60.1723 65 51.75V21.25C65 12.8277 58.1723 6 49.75 6Z" fill="#4C1D95"></path>
<path d="M1.425 4.66071C-3.325 -2.58929 3.8 -1.38095 22.8 8.28572Z" fill="#4C1D95"></path>
<path d="M67.5742 4.66071C72.3242 -2.58929 65.1992 -1.38095 46.1992 8.28572Z" fill="#4C1D95"></path>
<path d="M19 26L34 51L49 26" fill="#4C1D95"></path>
<path d="M19 26L34 51L49 26" stroke="white" stroke-width="6" stroke-linecap="round" stroke-linejoin="round"></path>
</svg></svg><style>@media (prefers-color-scheme: light) { :root { filter: none; } }
@media (prefers-color-scheme: dark) { :root { filter: none; } }
</style></svg>